<svg width="15" height="22" viewBox="0 0 15 22" fill="none" xmlns="http://www.w3.org/2000/svg">
<path d="M0.919549 21.2102V17.9512L7.18265 11.3763C7.97616 10.5072 8.54296 9.75152 8.88303 9.10915C9.242 8.44789 9.42149 7.78662 9.42149 7.12536C9.42149 5.42497 8.37292 4.57478 6.27577 4.57478C5.46336 4.57478 4.65096 4.73537 3.83855 5.05656C3.02614 5.35885 2.23263 5.83118 1.45801 6.47355L0.0410156 3.24281C0.872316 2.52487 1.89255 1.95807 3.10171 1.54242C4.32977 1.12677 5.58617 0.918945 6.87091 0.918945C9.1003 0.918945 10.8007 1.41961 11.9721 2.42095C13.1623 3.4034 13.7575 4.81095 13.7575 6.64359C13.7575 7.85275 13.4741 9.01468 12.9073 10.1294C12.3594 11.2252 11.4525 12.4155 10.1867 13.7002L6.33245 17.6111H14.4943V21.2102H0.919549Z" fill="#4F1C9D"/>
</svg>
