<svg width="16" height="21" viewBox="0 0 16 21" fill="none" xmlns="http://www.w3.org/2000/svg">
<path d="M7.86183 20.9224C6.46373 20.9224 5.13176 20.724 3.86591 20.3272C2.60007 19.9305 1.56094 19.392 0.748535 18.7119L2.13719 15.3961C3.81868 16.6431 5.67021 17.2665 7.69179 17.2665C9.99676 17.2665 11.1492 16.4069 11.1492 14.6876C11.1492 13.1006 10.0723 12.3071 7.91851 12.3071H4.57441V8.7646H7.49341C8.43807 8.7646 9.18435 8.54733 9.73225 8.11278C10.2802 7.67824 10.5541 7.07366 10.5541 6.29904C10.5541 4.74979 9.54332 3.97517 7.52175 3.97517C5.63243 3.97517 3.95093 4.60809 2.47726 5.87394L1.08861 2.6432C1.91991 1.90636 2.94015 1.33957 4.14931 0.942812C5.35848 0.527161 6.61487 0.319336 7.91851 0.319336C10.0723 0.319336 11.7538 0.801112 12.963 1.76467C14.1722 2.72822 14.7767 4.05074 14.7767 5.73224C14.7767 6.77136 14.5122 7.68768 13.9832 8.4812C13.4542 9.27471 12.7174 9.85096 11.7727 10.2099C12.9063 10.5311 13.7848 11.1262 14.4083 11.9953C15.0507 12.8455 15.3719 13.8752 15.3719 15.0844C15.3719 16.8981 14.7012 18.3246 13.3597 19.3637C12.0183 20.4028 10.1857 20.9224 7.86183 20.9224Z" fill="#4F1C9D"/>
</svg>
