<svg width="357" height="173" viewBox="0 0 357 173" fill="none" xmlns="http://www.w3.org/2000/svg">
<rect x="0.399902" y="96.6221" width="346.226" height="37.8014" rx="18.9007" fill="white"/>
<rect x="0.399902" y="48.5117" width="346.226" height="37.8014" rx="18.9007" fill="white" fill-opacity="0.75"/>
<rect x="0.399902" y="0.400391" width="346.226" height="37.8014" rx="18.9007" fill="white" fill-opacity="0.5"/>
<g clip-path="url(#clip0_1405_10876)">
<path d="M323.447 115.4H332.353C333.834 115.4 335.025 116.592 335.025 118.072V136.775H344.788C346.77 136.775 347.761 139.169 346.358 140.572L329.425 157.516C328.59 158.351 327.221 158.351 326.386 157.516L309.431 140.572C308.028 139.169 309.019 136.775 311 136.775H320.775V118.072C320.775 116.592 321.966 115.4 323.447 115.4ZM356.4 157.26V169.729C356.4 171.209 355.209 172.4 353.728 172.4H302.072C300.591 172.4 299.4 171.209 299.4 169.729V157.26C299.4 155.779 300.591 154.588 302.072 154.588H318.404L323.859 160.043C326.096 162.281 329.703 162.281 331.941 160.043L337.396 154.588H353.728C355.209 154.588 356.4 155.779 356.4 157.26ZM342.595 167.057C342.595 165.832 341.593 164.83 340.369 164.83C339.144 164.83 338.142 165.832 338.142 167.057C338.142 168.281 339.144 169.283 340.369 169.283C341.593 169.283 342.595 168.281 342.595 167.057ZM349.72 167.057C349.72 165.832 348.718 164.83 347.494 164.83C346.269 164.83 345.267 165.832 345.267 167.057C345.267 168.281 346.269 169.283 347.494 169.283C348.718 169.283 349.72 168.281 349.72 167.057Z" fill="#A0FF73"/>
</g>
<path d="M321.4 59.4004C316.98 59.4004 313.4 62.9804 313.4 67.4004C313.4 71.8204 316.98 75.4004 321.4 75.4004C325.82 75.4004 329.4 71.8204 329.4 67.4004C329.4 62.9804 325.82 59.4004 321.4 59.4004ZM320.785 72.0604H319.445L316.205 67.5204L317.546 66.2704L320.115 68.6704L325.256 62.7394L326.596 63.6794L320.785 72.0604V72.0604Z" fill="#A0FF73"/>
<g opacity="0.5">
<path d="M321.4 11.4004C316.98 11.4004 313.4 14.9804 313.4 19.4004C313.4 23.8204 316.98 27.4004 321.4 27.4004C325.82 27.4004 329.4 23.8204 329.4 19.4004C329.4 14.9804 325.82 11.4004 321.4 11.4004ZM320.785 24.0604H319.445L316.205 19.5204L317.546 18.2704L320.115 20.6704L325.256 14.7394L326.596 15.6794L320.785 24.0604V24.0604Z" fill="#A0FF73"/>
</g>
<defs>
<clipPath id="clip0_1405_10876">
<rect width="57" height="57" fill="white" transform="translate(299.4 115.4)"/>
</clipPath>
</defs>
</svg>
