<svg width="373" height="173" viewBox="0 0 373 173" fill="none" xmlns="http://www.w3.org/2000/svg">
<rect x="0.399902" y="96.6221" width="346.226" height="37.8014" rx="18.9007" fill="white"/>
<rect x="0.399902" y="48.5117" width="346.226" height="37.8014" rx="18.9007" fill="white" fill-opacity="0.75"/>
<rect x="0.399902" y="0.400391" width="346.226" height="37.8014" rx="18.9007" fill="white" fill-opacity="0.5"/>
<path d="M325.936 102.922C326.563 102.922 327.164 103.171 327.607 103.614C328.05 104.057 328.299 104.658 328.299 105.284V113.16C328.299 113.786 328.05 114.387 327.607 114.83C327.164 115.273 326.563 115.522 325.936 115.522C325.31 115.522 324.709 115.273 324.266 114.83C323.822 114.387 323.574 113.786 323.574 113.16V105.284C323.574 104.658 323.822 104.057 324.266 103.614C324.709 103.171 325.31 102.922 325.936 102.922ZM310.879 109.128C311.322 108.685 311.922 108.437 312.548 108.437C313.174 108.437 313.775 108.685 314.218 109.128L319.73 114.64C319.963 114.857 320.149 115.117 320.278 115.407C320.407 115.697 320.476 116.01 320.482 116.327C320.488 116.644 320.429 116.959 320.31 117.254C320.192 117.548 320.015 117.815 319.79 118.039C319.566 118.264 319.299 118.441 319.005 118.559C318.71 118.678 318.395 118.737 318.078 118.731C317.761 118.725 317.448 118.656 317.158 118.527C316.868 118.398 316.608 118.212 316.391 117.979L310.879 112.467C310.436 112.024 310.188 111.423 310.188 110.797C310.188 110.171 310.436 109.571 310.879 109.128ZM340.994 109.128C341.436 109.571 341.685 110.171 341.685 110.797C341.685 111.423 341.436 112.024 340.994 112.467L335.481 117.979C335.265 118.212 335.004 118.398 334.714 118.527C334.424 118.656 334.111 118.725 333.794 118.731C333.477 118.737 333.162 118.678 332.868 118.559C332.573 118.441 332.306 118.264 332.082 118.039C331.858 117.815 331.681 117.548 331.562 117.254C331.443 116.959 331.385 116.644 331.39 116.327C331.396 116.01 331.465 115.697 331.594 115.407C331.724 115.117 331.91 114.857 332.142 114.64L337.655 109.128C338.098 108.685 338.698 108.437 339.324 108.437C339.95 108.437 340.551 108.685 340.994 109.128ZM304.673 124.185C304.673 123.559 304.922 122.958 305.365 122.515C305.808 122.071 306.409 121.823 307.035 121.823H314.911C315.537 121.823 316.138 122.071 316.581 122.515C317.024 122.958 317.273 123.559 317.273 124.185C317.273 124.812 317.024 125.413 316.581 125.856C316.138 126.299 315.537 126.548 314.911 126.548H307.035C306.409 126.548 305.808 126.299 305.365 125.856C304.922 125.413 304.673 124.812 304.673 124.185ZM323.574 126.507C323.574 122.957 327.738 121.041 330.431 123.354L357.084 146.198C359.951 148.655 358.319 153.352 354.549 153.506L342.452 153.988C341.151 154.039 339.929 154.618 339.06 155.586L330.825 164.79C328.283 167.635 323.574 165.833 323.574 162.018V126.51V126.507Z" fill="#A0FF73"/>
</svg>
