<svg width="74" height="74" viewBox="0 0 74 74" fill="none" xmlns="http://www.w3.org/2000/svg">
<path fill-rule="evenodd" clip-rule="evenodd" d="M73.7272 36.8636C73.7272 57.2228 57.2228 73.7271 36.8636 73.7271C16.5044 73.7271 0 57.2228 0 36.8636C0 16.5044 16.5044 0 36.8636 0C36.883 0 36.9023 1.49537e-05 36.9217 4.48503e-05H73.7272L73.7272 36.8636Z" fill="#6E3CBC"/>
<path d="M36.8635 12.7368C32.0508 12.7346 27.3455 14.1598 23.3429 16.8323C19.3403 19.5047 16.2203 23.3042 14.3775 27.7502C12.5347 32.1962 12.052 37.0888 12.9904 41.8092C13.9288 46.5296 16.2461 50.8656 19.6492 54.2687C23.0523 57.6719 27.3883 59.9892 32.1087 60.9276C36.8291 61.8659 41.7217 61.3832 46.1677 59.5404C50.6137 57.6976 54.4132 54.5776 57.0856 50.575C59.7581 46.5724 61.1833 41.8672 61.1811 37.0544C61.1782 30.6059 58.6152 24.4223 54.0554 19.8626C49.4956 15.3028 43.312 12.7398 36.8635 12.7368V12.7368ZM36.8635 50.5767C34.2025 50.5766 31.6012 49.7883 29.388 48.3111C27.1747 46.8339 25.4487 44.734 24.4279 42.2767C23.407 39.8193 23.1371 37.1146 23.6522 34.504C24.1672 31.8933 25.4442 29.4938 27.3218 27.6083C29.1995 25.7228 31.5937 24.4359 34.2022 23.91C36.8106 23.3841 39.5164 23.6428 41.978 24.6534C44.4396 25.664 46.5466 27.3813 48.033 29.5884C49.5194 31.7955 50.3186 34.3935 50.3297 37.0544C50.337 38.8275 49.9942 40.5847 49.3207 42.2249C48.6473 43.8652 47.6566 45.3563 46.4054 46.6127C45.1542 47.8691 43.6672 48.8661 42.0298 49.5463C40.3923 50.2265 38.6366 50.5767 36.8635 50.5767V50.5767Z" fill="white"/>
<path d="M60.3955 22.5331V12.3438H49.6113C54.0371 14.7361 57.7562 18.25 60.3955 22.5331Z" fill="#9C66F0"/>
</svg>
