<svg width="45" height="44" viewBox="0 0 45 44" fill="none" xmlns="http://www.w3.org/2000/svg">
<g clip-path="url(#clip0_1357_10984)">
<path d="M37.5261 0H7.47242C3.34713 0 0.00292969 3.34419 0.00292969 7.46946V36.3983C0.00292969 40.5235 3.34713 43.8677 7.47242 43.8677H37.5261C41.6514 43.8677 44.9956 40.5235 44.9956 36.3983V7.46946C44.9956 3.34419 41.6514 0 37.5261 0Z" fill="#330000"/>
<path d="M21.8066 26.3256H14.8345L13.4159 30.7323C13.3966 30.8126 13.3498 30.8838 13.2837 30.9334C13.2176 30.983 13.1362 31.0079 13.0536 31.004H9.52223C9.321 31.004 9.25052 30.8932 9.31098 30.6718L15.3476 13.2868C15.4078 13.1057 15.4683 12.8996 15.5286 12.6681C15.6077 12.2653 15.6481 11.8561 15.6493 11.4457C15.6452 11.417 15.6478 11.3878 15.657 11.3603C15.6662 11.3327 15.6816 11.3077 15.7021 11.2872C15.7226 11.2667 15.7476 11.2513 15.7751 11.2421C15.8026 11.2329 15.8319 11.2302 15.8606 11.2343H20.6597C20.8003 11.2343 20.8808 11.2848 20.9012 11.3855L27.7525 30.702C27.813 30.9034 27.7525 31.0041 27.5715 31.004H23.6476C23.5803 31.0114 23.5125 30.9941 23.4569 30.9552C23.4014 30.9164 23.3619 30.8586 23.3459 30.7927L21.8066 26.3256ZM15.921 22.5227H20.6899L20.6219 22.2983L20.5127 21.9429L20.4349 21.6933L20.3106 21.3003L20.0465 20.4731L19.8141 19.7397L19.2108 17.8292C19.0606 17.3543 18.9165 16.8775 18.7784 16.399L18.668 16.0106L18.539 15.5513L18.3422 14.8395L18.3053 14.7054H18.2752C18.1242 15.4299 17.9403 16.1471 17.7241 16.8549L17.2763 18.2953L17.0299 19.0911L16.7812 19.8968C16.7362 20.0423 16.6915 20.1863 16.6467 20.3284L16.5131 20.7499L16.3803 21.1615L16.2481 21.5629L16.1166 21.9543C16.0731 22.0831 16.0295 22.2102 15.9861 22.3357L15.921 22.5227ZM31.8268 14.4337C31.519 14.4461 31.212 14.3933 30.926 14.2789C30.6399 14.1645 30.3812 13.991 30.1668 13.7697C29.953 13.5389 29.7869 13.268 29.6782 12.9728C29.5694 12.6775 29.52 12.3637 29.5329 12.0493C29.522 11.738 29.5768 11.428 29.6938 11.1394C29.8108 10.8508 29.9874 10.5901 30.212 10.3744C30.6453 9.95847 31.2222 9.72573 31.8228 9.72461L31.8871 9.72531C32.6116 9.72531 33.1801 9.94149 33.5926 10.3742C33.8008 10.599 33.9626 10.8627 34.0688 11.1501C34.1749 11.4376 34.2233 11.7431 34.2113 12.0493C34.2239 12.3649 34.173 12.6799 34.0615 12.9755C33.9501 13.2711 33.7803 13.5412 33.5624 13.7699C33.3424 13.9868 33.0812 14.1574 32.7942 14.2718C32.5072 14.3862 32.2002 14.442 31.8913 14.436L31.8268 14.4337ZM29.7442 30.702V16.2749C29.7442 16.0939 29.8243 16.0032 29.9856 16.0032H33.6982C33.8591 16.0032 33.9395 16.0937 33.9397 16.2749V30.702C33.9397 30.9034 33.8592 31.0041 33.6982 31.004H30.0159C29.8443 31.004 29.754 30.9136 29.745 30.733L29.7442 30.702Z" fill="#FF9A00"/>
</g>
<defs>
<clipPath id="clip0_1357_10984">
<rect width="45" height="43.938" fill="white"/>
</clipPath>
</defs>
</svg>
