<svg width="93" height="77" viewBox="0 0 93 77" fill="none" xmlns="http://www.w3.org/2000/svg">
<path fill-rule="evenodd" clip-rule="evenodd" d="M48.119 0.0201227C40.7115 -0.226562 33.2275 1.7944 26.7662 6.10732C19.5093 10.9565 14.4378 18.1173 12.1018 26.1224C11.4567 26.0436 10.6842 26.0784 9.76697 26.3378C6.34233 27.3095 3.76661 30.1156 2.60847 32.5871C1.10635 35.8079 0.472847 40.0676 1.1411 44.465C1.80471 48.8486 3.65659 52.462 5.97288 54.7054C8.29612 56.9498 10.9193 57.6795 13.5252 57.1317C17.4049 56.3036 19.3286 55.684 18.7855 52.0694L16.1553 34.5479C16.6857 25.065 21.5951 16.138 29.8064 10.6484C40.7972 3.30693 55.2068 3.77714 65.6904 11.8251C72.9832 17.4166 77.2174 25.7946 77.7061 34.5896L75.867 46.8462C71.7648 58.0721 61.5952 65.8479 49.8272 66.9516H41.9912C39.9691 66.9516 38.3407 68.5799 38.3407 70.5997V72.5246C38.3407 74.5455 39.9691 76.1739 41.9912 76.1739H51.8714C53.8923 76.1739 55.5137 74.5455 55.5137 72.5246V71.5181C64.3875 69.3524 72.1331 63.8987 77.1769 56.2932L80.3421 57.1328C82.9178 57.8011 85.5723 56.9498 87.8943 54.7065C90.2106 52.462 92.0613 48.8498 92.7261 44.4662C93.3967 40.0687 92.7447 35.816 91.2599 32.5883C89.7694 29.3605 87.5492 27.3106 84.9862 26.5752C83.9126 26.266 82.7475 26.1525 81.7481 26.1224C79.6356 18.884 75.2868 12.3011 69.0189 7.49478C62.8564 2.76608 55.5265 0.263333 48.119 0.0201227Z" fill="#31A8FF"/>
<path fill-rule="evenodd" clip-rule="evenodd" d="M59.6838 31.5424C62.2954 31.5424 64.4125 33.6595 64.4183 36.2781C64.4125 38.8897 62.2954 41.0126 59.6838 41.0126C57.0652 41.0126 54.9424 38.8897 54.9424 36.2781C54.9424 33.6607 57.0664 31.5424 59.6838 31.5424ZM46.9326 31.5424C49.55 31.5424 51.6671 33.6595 51.6671 36.2781C51.6671 38.8897 49.55 41.0126 46.9326 41.0126C44.3129 41.0126 42.1958 38.8897 42.1958 36.2781C42.1958 33.6607 44.3129 31.5424 46.9326 31.5424ZM34.1861 31.5424C36.7977 31.5424 38.9206 33.6595 38.9206 36.2781C38.9206 38.8897 36.7977 41.0126 34.1861 41.0126C31.5687 41.0126 29.4504 38.8897 29.4504 36.2781C29.4504 33.6607 31.5687 31.5424 34.1861 31.5424ZM46.9326 11.2031C33.0464 11.2031 21.8564 22.0248 21.8564 36.2781C21.8564 43.1239 24.4449 49.174 28.6617 53.6132L27.1654 60.3212C26.672 62.5286 28.2031 64.0133 30.187 62.9085L36.7375 59.2545C39.8506 60.6061 43.2937 61.3531 46.9326 61.3531C60.8234 61.3531 72.0065 50.5383 72.0065 36.2781C72.0065 22.0248 60.8234 11.2031 46.9326 11.2031Z" fill="#884CE6"/>
</svg>
