<svg width="127" height="79" viewBox="0 0 127 79" fill="none" xmlns="http://www.w3.org/2000/svg">
<path d="M87.4902 79C79.6778 79 72.0409 76.6834 65.5452 72.3431C59.0495 68.0027 53.9866 61.8337 50.997 54.616C48.0073 47.3983 47.2251 39.4562 48.7492 31.794C50.2734 24.1317 54.0354 17.0935 59.5595 11.5693C65.0837 6.04513 72.1219 2.28312 79.7842 0.758999C87.4464 -0.765117 95.3886 0.0171146 102.606 3.00678C109.824 5.99644 115.993 11.0593 120.333 17.555C124.674 24.0507 126.99 31.6877 126.99 39.5C126.98 49.9728 122.815 60.0136 115.409 67.419C108.004 74.8244 97.963 78.9894 87.4902 79V79ZM87.4902 6.32002C80.9278 6.32002 74.5129 8.26599 69.0564 11.9119C63.6 15.5577 59.3472 20.7397 56.8359 26.8026C54.3246 32.8654 53.6675 39.5368 54.9478 45.9731C56.228 52.4094 59.3881 58.3215 64.0284 62.9618C68.6687 67.6021 74.5808 70.7622 81.0171 72.0425C87.4534 73.3227 94.1248 72.6657 100.188 70.1543C106.251 67.643 111.433 63.3903 115.078 57.9338C118.724 52.4774 120.67 46.0624 120.67 39.5C120.66 30.7034 117.161 22.2701 110.94 16.0499C104.72 9.82974 96.2868 6.3306 87.4902 6.32002V6.32002Z" fill="#6E3CBC"/>
<path d="M88.6194 11.1895C83.3996 11.1761 78.2851 12.6577 73.8807 15.4592C69.4764 18.2607 65.9664 22.2648 63.7659 26.9982C61.5654 31.7315 60.7665 36.996 61.4636 42.1691C62.1606 47.3422 64.3245 52.2075 67.6994 56.1895C64.6371 51.8931 62.9971 46.7456 63.0094 41.4695C63.0094 28.0195 73.2994 17.0795 85.9494 17.0795C89.2323 17.1044 92.4691 17.8541 95.4286 19.2751C98.3881 20.696 100.997 22.7532 103.069 25.2995L109.739 21.2295C107.182 18.0972 103.96 15.5718 100.308 13.8356C96.6556 12.0994 92.6634 11.1956 88.6194 11.1895Z" fill="url(#paint0_linear_1168_10408)"/>
<path d="M92.9403 38.0301L113.21 22.5801L91.0703 35.1401C91.9821 35.8827 92.6365 36.894 92.9403 38.0301V38.0301Z" fill="#9C66F0"/>
<path d="M92.9403 38.0301C92.6106 36.8335 91.9005 35.7766 90.9174 35.019C89.9343 34.2614 88.7314 33.8441 87.4903 33.8301C86.3689 33.8301 85.2727 34.1626 84.3403 34.7856C83.4078 35.4087 82.6811 36.2942 82.2519 37.3303C81.8228 38.3663 81.7105 39.5064 81.9293 40.6062C82.148 41.7061 82.688 42.7164 83.481 43.5094C84.274 44.3023 85.2843 44.8424 86.3841 45.0611C87.484 45.2799 88.6241 45.1676 89.6601 44.7385C90.6962 44.3093 91.5817 43.5826 92.2048 42.6502C92.8278 41.7177 93.1603 40.6215 93.1603 39.5001C93.1539 39.0024 93.0798 38.5079 92.9403 38.0301V38.0301ZM87.4903 42.0301C86.9978 42.0301 86.5164 41.884 86.1069 41.6104C85.6974 41.3368 85.3783 40.9479 85.1899 40.493C85.0014 40.038 84.9521 39.5373 85.0481 39.0543C85.1442 38.5713 85.3814 38.1276 85.7296 37.7794C86.0778 37.4311 86.5216 37.194 87.0046 37.0979C87.4876 37.0018 87.9882 37.0512 88.4432 37.2396C88.8982 37.4281 89.2871 37.7472 89.5607 38.1567C89.8343 38.5662 89.9803 39.0476 89.9803 39.5401C89.9673 40.1927 89.6995 40.8143 89.2342 41.2721C88.7689 41.7299 88.143 41.9876 87.4903 41.9901V42.0301Z" fill="#9C66F0"/>
<path d="M0 76.5L85.95 79L85.78 78.91C80.2415 78.6796 74.8151 77.2752 69.86 74.79L0 76.5Z" fill="#6E3CBC"/>
<path d="M11.3398 68.68L62.6298 70.17C61.5854 69.3312 60.5841 68.4401 59.6298 67.5L11.3398 68.68Z" fill="#6E3CBC"/>
<path d="M15.2002 58.92L53.8202 60.04C53.4102 59.37 53.0002 58.7 52.6202 58.04L15.2002 58.92Z" fill="#6E3CBC"/>
<path d="M15.2002 49.2997L49.5402 50.2997C49.3602 49.6897 49.2102 49.0897 49.0602 48.4697L15.2002 49.2997Z" fill="#6E3CBC"/>
<path d="M48.0503 38.5L11.9902 39.79L48.0903 41.31C48.0903 40.71 48.0002 40.11 48.0002 39.5C48.0002 39.16 48.0403 38.83 48.0503 38.5Z" fill="#6E3CBC"/>
<path d="M27.2695 30.2898L48.8995 31.2098C49.0195 30.6298 49.1895 30.0698 49.3395 29.5098L27.2695 30.2898Z" fill="#6E3CBC"/>
<path d="M31.8906 20.5005L52.4406 21.3705C52.7306 20.8105 53.0406 20.2705 53.3506 19.7305L31.8906 20.5005Z" fill="#6E3CBC"/>
<path d="M61.4201 9.91992L37.8301 10.7599L59.5001 11.6799C60.1101 11.0599 60.7601 10.4899 61.4201 9.91992Z" fill="#6E3CBC"/>
<defs>
<linearGradient id="paint0_linear_1168_10408" x1="109.393" y1="14.4995" x2="64.8926" y2="50.9995" gradientUnits="userSpaceOnUse">
<stop stop-color="#FF0000"/>
<stop offset="1" stop-color="#DBFF00"/>
</linearGradient>
</defs>
</svg>
