<svg width="45" height="45" viewBox="0 0 45 45" fill="none" xmlns="http://www.w3.org/2000/svg">
<g clip-path="url(#clip0_1357_10987)">
<path d="M34.4531 0H10.5469C4.722 0 0 4.72198 0 10.5468V34.453C0 40.2779 4.722 44.9999 10.5469 44.9999H34.4531C40.278 44.9999 45 40.2779 45 34.453V10.5468C45 4.72198 40.278 0 34.4531 0Z" fill="#242938"/>
<mask id="mask0_1357_10987" style="mask-type:luminance" maskUnits="userSpaceOnUse" x="10" y="4" width="25" height="37">
<path d="M10.7227 4.92188H34.1648V40.078H10.7227V4.92188Z" fill="white"/>
</mask>
<g mask="url(#mask0_1357_10987)">
<path d="M16.5851 40.0781C19.8195 40.0781 22.4444 37.4532 22.4444 34.2189V28.3594H16.5851C13.3507 28.3594 10.7256 30.9845 10.7256 34.2189C10.7256 37.4532 13.3507 40.0781 16.5851 40.0781Z" fill="#0ACF83"/>
<path d="M10.7256 22.4999C10.7256 19.2656 13.3507 16.6406 16.5851 16.6406H22.4444V28.3592H16.5851C13.3507 28.3592 10.7256 25.7343 10.7256 22.4999Z" fill="#A259FF"/>
<path d="M10.7256 10.7812C10.7256 7.54681 13.3507 4.92188 16.5851 4.92188H22.4444V16.6406H16.5851C13.3507 16.6406 10.7256 14.0155 10.7256 10.7812Z" fill="#F24E1E"/>
<path d="M22.4443 4.92188H28.3037C31.538 4.92188 34.1631 7.54681 34.1631 10.7812C34.1631 14.0155 31.538 16.6406 28.3037 16.6406H22.4443V4.92188Z" fill="#FF7262"/>
<path d="M34.1631 22.4999C34.1631 25.7343 31.538 28.3592 28.3037 28.3592C25.0693 28.3592 22.4443 25.7343 22.4443 22.4999C22.4443 19.2656 25.0693 16.6406 28.3037 16.6406C31.538 16.6406 34.1631 19.2656 34.1631 22.4999Z" fill="#1ABCFE"/>
</g>
</g>
<defs>
<clipPath id="clip0_1357_10987">
<rect width="45" height="44.9999" fill="white"/>
</clipPath>
</defs>
</svg>
