<svg width="90" height="97" viewBox="0 0 90 97" fill="none" xmlns="http://www.w3.org/2000/svg">
<path d="M27.5983 58.0322L20.423 65.0826L11.035 74.308L8.44744 76.8082C6.44734 78.7583 4.38462 80.7709 2.39702 82.7835C1.078 84.1212 0.250261 85.8658 0.0482746 87.7336C-0.153711 89.6014 0.28191 91.4826 1.28445 93.0715C2.05586 94.2455 3.11986 95.1983 4.37146 95.8362C5.62305 96.474 7.01919 96.7749 8.42241 96.7092C9.55989 96.6577 10.6742 96.3699 11.6944 95.8641C12.7145 95.3584 13.6181 94.6457 14.3477 93.7715C16.1478 91.6464 17.9479 89.4463 19.6855 87.3087L22.1105 84.371L37.2613 66.0076C33.7136 63.7718 30.4663 61.0916 27.5983 58.0322V58.0322ZM8.73493 92.5715C7.60078 92.616 6.49428 92.2142 5.65295 91.4524C4.81163 90.6905 4.30255 89.6292 4.23473 88.4962C4.20192 87.9303 4.28222 87.3636 4.4711 86.8291C4.65999 86.2946 4.95353 85.8032 5.33464 85.3836C5.7087 84.9576 6.16525 84.6117 6.67656 84.3667C7.18788 84.1218 7.74338 83.983 8.30979 83.9585V83.9585C9.42038 83.9001 10.5101 84.2768 11.3475 85.0086C11.771 85.3821 12.1152 85.8368 12.36 86.3456C12.6048 86.8545 12.7451 87.4072 12.7726 87.9712C12.8098 88.5424 12.7333 89.1154 12.5474 89.6568C12.3615 90.1982 12.0699 90.6973 11.6896 91.1252C11.3094 91.5531 10.8481 91.9013 10.3323 92.1496C9.81649 92.3978 9.25651 92.5412 8.68487 92.5715H8.73493Z" fill="#6E3CBC"/>
<path d="M55.8998 0.00469417C49.4587 -0.0183707 43.1473 1.81516 37.7213 5.28584C32.2952 8.75652 27.9842 13.7173 25.3042 19.5744C22.6243 25.4316 21.689 31.9369 22.6102 38.3118C23.5314 44.6867 26.27 50.6611 30.4984 55.52C32.7815 58.1461 35.4546 60.4059 38.424 62.2203C43.6373 65.4028 49.6293 67.0815 55.7373 67.0705C60.1947 67.1667 64.6267 66.3732 68.7738 64.7364C72.921 63.0996 76.7002 60.6524 79.8904 57.5378C83.0806 54.4232 85.6178 50.7039 87.3537 46.5972C89.0895 42.4905 89.9892 38.0789 90 33.6204C90.0108 29.162 89.1325 24.7461 87.4166 20.631C85.7006 16.516 83.1815 12.7843 80.0064 9.65435C76.8313 6.52436 73.0641 4.05883 68.9249 2.40195C64.7857 0.745078 60.3577 -0.0698947 55.8998 0.00469417V0.00469417ZM54.9623 59.6952C51.2817 59.582 47.6665 58.6927 44.3534 57.0857C41.0402 55.4787 38.1038 53.1901 35.7363 50.3697C31.862 45.7702 29.6844 39.98 29.5676 33.9673C29.4509 27.9547 31.4021 22.0843 35.0949 17.3378C38.7877 12.5914 43.9983 9.25679 49.855 7.89167C55.7118 6.52655 61.8596 7.2137 67.2704 9.83821C72.6813 12.4627 77.027 16.8654 79.5808 22.3101C82.1345 27.7547 82.7414 33.911 81.3001 39.7495C79.8587 45.588 76.4565 50.7546 71.6623 54.3852C66.8681 58.0158 60.9728 59.8903 54.9623 59.6952V59.6952Z" fill="#6E3CBC"/>
<path d="M56.3497 9.78027C60.2432 9.83195 64.0609 10.8638 67.4503 12.7804C67.7509 12.8966 68.0215 13.0789 68.2421 13.3137C68.4628 13.5486 68.6279 13.8301 68.7251 14.1373C68.8223 14.4446 68.8492 14.7698 68.8038 15.0888C68.7584 15.4079 68.6418 15.7126 68.4628 15.9806C68.3433 16.3165 68.1561 16.6242 67.9127 16.8847C67.6692 17.1452 67.3747 17.3528 67.0476 17.4946C66.7205 17.6365 66.3679 17.7095 66.0113 17.7093C65.6548 17.709 65.3021 17.6355 64.9752 17.4932C62.6213 16.3051 60.0353 15.648 57.3998 15.5681C52.5625 15.2408 47.7866 16.8 44.0742 19.9183C43.8046 20.1348 43.4931 20.2931 43.1592 20.3831C42.8254 20.4731 42.4766 20.4928 42.1347 20.4412C41.7928 20.3895 41.4654 20.2674 41.1731 20.0828C40.8808 19.8981 40.63 19.6548 40.4365 19.3683C40.204 19.1453 40.0203 18.8765 39.8972 18.5788C39.7741 18.2812 39.7142 17.9612 39.7213 17.6392C39.7283 17.3172 39.8022 17.0001 39.9383 16.7081C40.0743 16.4162 40.2694 16.1556 40.5114 15.9431C43.9811 12.8572 48.2631 10.8312 52.8495 10.1053C54.0246 9.93028 55.1997 9.89278 56.3497 9.78027Z" fill="#DDAC00"/>
<path d="M54.8243 37.5816C53.2457 37.2561 51.7275 36.6867 50.3241 35.894C49.3256 35.3578 48.4719 34.5875 47.8362 33.6492C47.2004 32.7108 46.8016 31.6324 46.6738 30.5062C46.3616 28.6454 46.6736 26.7335 47.5613 25.0685C48.0954 24.0561 48.8541 23.1794 49.7793 22.5056C50.7045 21.8317 51.7717 21.3785 52.8991 21.1808C53.5242 21.0433 54.1492 20.9558 54.8368 20.8307V19.1182H57.0119V20.8557C62.5872 21.3558 64.5122 25.081 64.9497 28.2186L61.1996 28.7811C61.0591 27.3478 60.4015 26.0146 59.3495 25.031C58.6694 24.495 57.8656 24.1382 57.0119 23.9934V24.3184C57.0119 27.6186 57.0119 30.9187 57.0119 34.2189C57.0119 34.4939 57.1119 34.5689 57.3494 34.6314C58.5857 34.9547 59.804 35.3428 60.9995 35.794C62.2209 36.2861 63.2895 37.0942 64.0957 38.1354C64.9018 39.1767 65.4167 40.4135 65.5873 41.7193C66.0325 43.9388 65.609 46.2446 64.4042 48.1612C63.1994 50.0777 61.3051 51.4588 59.1119 52.0198C58.5619 52.1573 57.9994 52.2073 57.4369 52.2948H57.0119V55.97H54.8618V52.3448C54.3243 52.2448 53.7992 52.1698 53.2867 52.0573C51.8829 51.8374 50.5508 51.2892 49.3989 50.4572C47.7614 49.1643 46.6399 47.3289 46.2363 45.282C46.0988 44.6819 46.0238 44.0319 45.9238 43.4069L49.674 42.7068C49.7365 43.0444 49.7865 43.3694 49.849 43.6944C50.0382 44.8993 50.4999 46.0451 51.1991 47.0446C51.6173 47.6302 52.1517 48.1233 52.769 48.4933C53.3862 48.8632 54.0731 49.102 54.7867 49.1947C54.7867 49.1947 54.7867 49.1947 54.8742 49.1947L54.8243 37.5816ZM57.0244 49.2322C57.8393 49.1479 58.6242 48.879 59.3196 48.4458C60.0149 48.0125 60.6023 47.4264 61.037 46.732C61.8735 45.3816 62.1515 43.7586 61.8121 42.2068C61.6781 41.2206 61.1673 40.3245 60.387 39.7067C59.3886 38.9802 58.266 38.4422 57.0743 38.1191L57.0244 49.2322ZM54.8243 34.0564V23.9309L54.3242 24.0184C53.6142 24.1479 52.9406 24.4296 52.3498 24.8441C51.7589 25.2585 51.2648 25.796 50.9013 26.4196C50.5379 27.0431 50.3137 27.7379 50.2443 28.4563C50.1748 29.1747 50.2617 29.8996 50.4989 30.5812C51.149 32.6688 52.9242 33.4314 54.8243 34.0564Z" fill="#DDAC00"/>
</svg>
