<svg width="45" height="44" viewBox="0 0 45 44" fill="none" xmlns="http://www.w3.org/2000/svg">
<g clip-path="url(#clip0_1357_11002)">
<path d="M37.5276 0.0615234H7.47388C3.3486 0.0615234 0.00439453 3.40572 0.00439453 7.53099V36.4598C0.00439453 40.585 3.3486 43.9292 7.47388 43.9292H37.5276C41.6529 43.9292 44.9971 40.585 44.9971 36.4598V7.53099C44.9971 3.40572 41.6529 0.0615234 37.5276 0.0615234Z" fill="#001E36"/>
<path d="M10.1353 30.8248V11.5381C10.1353 11.3975 10.1957 11.3268 10.3165 11.3268L10.5075 11.3263L10.834 11.3228L11.2878 11.3138L12.8081 11.2817L14.4382 11.2514C15.0115 11.2416 15.5799 11.2363 16.1434 11.2363C17.6724 11.2363 18.9601 11.4275 20.0068 11.8098C20.9508 12.1291 21.8118 12.655 22.527 13.349C23.1334 13.9507 23.6019 14.6767 23.9004 15.477C24.1827 16.2558 24.3258 17.0783 24.3231 17.9066C24.3231 19.5167 23.9506 20.8447 23.2062 21.8908C22.478 22.9113 21.4623 23.6918 20.2887 24.1327L20.188 24.1696C18.9624 24.6267 17.6053 24.7919 16.1168 24.8023L15.8855 24.803L15.5423 24.8012L15.3692 24.7988L15.1762 24.7942L15.0598 24.7896L14.9892 24.7859L14.8154 24.7796L14.6029 24.7752L14.283 24.7729L14.2118 24.7728V30.7945C14.2171 30.8315 14.2137 30.8691 14.202 30.9045C14.1902 30.9399 14.1703 30.972 14.1439 30.9984C14.1176 31.0247 14.0854 31.0446 14.0501 31.0564C14.0147 31.0682 13.977 31.0715 13.9401 31.0663H10.3467C10.2056 31.0663 10.1353 30.9861 10.1353 30.8248ZM14.212 14.9487V21.2393C14.4529 21.2587 14.6944 21.2688 14.9361 21.2695H15.9323C16.6191 21.2672 17.3019 21.1649 17.9592 20.966L18.0903 20.925C18.6884 20.7474 19.2227 20.4016 19.6298 19.9288C20.008 19.4828 20.2039 18.8682 20.2175 18.0849L20.2184 17.9972C20.2342 17.4133 20.0823 16.8372 19.7806 16.3372C19.4634 15.8536 19.005 15.4795 18.4677 15.2656C17.7661 14.9929 17.0166 14.8646 16.2643 14.8885L15.8815 14.8895L15.64 14.8916L15.4096 14.8946L15.0844 14.9009L14.8472 14.9076L14.724 14.9122L14.5593 14.9199L14.419 14.9285L14.3391 14.9349L14.27 14.9415L14.2396 14.945L14.212 14.9487ZM35.993 20.0955C35.4665 19.8249 34.908 19.6217 34.3308 19.4905L34.1972 19.4617C33.5621 19.316 32.9138 19.2357 32.2623 19.2221L32.0996 19.2202C31.7177 19.2099 31.3363 19.2556 30.9677 19.3561C30.7331 19.4082 30.5245 19.5419 30.379 19.7332C30.2806 19.8863 30.2283 20.0645 30.2282 20.2464C30.2337 20.4229 30.2973 20.5926 30.4092 20.7292C30.5694 20.9166 30.762 21.0736 30.9778 21.1927L31.0431 21.2273C31.4735 21.459 31.9169 21.6656 32.3711 21.846C33.3841 22.1851 34.352 22.6462 35.2535 23.2193C35.8677 23.6069 36.376 24.1411 36.7326 24.7738C37.0324 25.3728 37.1826 26.0356 37.1702 26.7053C37.1883 27.5898 36.9355 28.4588 36.4458 29.1956C35.9215 29.9434 35.1933 30.5248 34.348 30.8705C33.4627 31.2596 32.3755 31.4605 31.0865 31.4736L30.9526 31.4744C30.1536 31.4824 29.3556 31.4125 28.5701 31.2656L28.4021 31.2329C27.7408 31.1116 27.097 30.9088 26.4855 30.6292C26.4241 30.5974 26.3721 30.55 26.335 30.4916C26.2979 30.4333 26.2769 30.3661 26.2743 30.297V27.0073C26.2706 26.9753 26.2758 26.943 26.2891 26.9138C26.3024 26.8845 26.3234 26.8594 26.3498 26.8412C26.3758 26.8265 26.4055 26.8201 26.4352 26.8228C26.4648 26.8255 26.4929 26.8372 26.5157 26.8563C27.2378 27.2821 28.0219 27.5927 28.8397 27.7769C29.5606 27.9576 30.3 28.0539 31.0431 28.0637C31.7472 28.0637 32.2653 27.973 32.5975 27.792C32.7475 27.7233 32.8744 27.6127 32.9628 27.4734C33.0512 27.3341 33.0973 27.1722 33.0956 27.0073C33.0956 26.7461 32.9446 26.4944 32.6428 26.2528C32.5163 26.1515 32.3347 26.0413 32.0985 25.9223L31.9855 25.8668L31.865 25.81L31.8017 25.7812L31.6692 25.7225C31.6462 25.7125 31.6232 25.7025 31.6001 25.6926L31.456 25.6322L31.3809 25.6014L31.2252 25.539L31.1444 25.5074L30.9769 25.4429L30.8017 25.3773C29.8539 25.0475 28.9553 24.5906 28.1304 24.0191C27.5404 23.6088 27.0547 23.0662 26.7119 22.4345C26.4151 21.8398 26.265 21.1826 26.2743 20.518C26.2726 19.7194 26.4919 18.9359 26.908 18.2543C27.3826 17.5038 28.0638 16.9063 28.87 16.534C29.7552 16.0917 30.8618 15.8702 32.1899 15.8699C32.9678 15.8636 33.745 15.9191 34.5141 16.0359C35.071 16.1066 35.6155 16.2538 36.1321 16.4736C36.2152 16.4975 36.2821 16.5588 36.3131 16.6396C36.3336 16.7133 36.3437 16.7894 36.3433 16.866V19.9144C36.3477 19.9865 36.3131 20.0556 36.2528 20.0955C36.2124 20.1155 36.168 20.126 36.1229 20.126C36.0778 20.126 36.0334 20.1155 35.993 20.0955Z" fill="#31A8FF"/>
</g>
<defs>
<clipPath id="clip0_1357_11002">
<rect width="45" height="43.938" fill="white" transform="translate(0 0.0615234)"/>
</clipPath>
</defs>
</svg>
