<svg width="82" height="87" viewBox="0 0 82 87" fill="none" xmlns="http://www.w3.org/2000/svg">
<path d="M41.248 19.4145C43.0891 19.3795 44.8787 18.8016 46.3926 17.7533C47.9064 16.705 49.077 15.233 49.7574 13.522C50.4378 11.8109 50.5978 9.93708 50.2173 8.13547C49.8367 6.33386 48.9326 4.68472 47.6184 3.39499C46.3042 2.10527 44.6383 1.23237 42.8299 0.885817C41.0214 0.539261 39.1509 0.734494 37.4529 1.447C35.755 2.1595 34.3054 3.35755 33.2857 4.89085C32.2661 6.42415 31.722 8.22439 31.7217 10.0657C31.7333 11.3051 31.9889 12.5301 32.474 13.6707C32.959 14.8112 33.664 15.8451 34.5486 16.7132C35.4332 17.5813 36.4801 18.2667 37.6296 18.7302C38.7791 19.1937 40.0087 19.4262 41.248 19.4145V19.4145ZM36.6181 10.0657C36.5804 9.14292 36.8196 8.22995 37.3049 7.44415C37.7903 6.65834 38.4995 6.03562 39.3415 5.65608C40.1835 5.27653 41.1198 5.1575 42.03 5.31426C42.9402 5.47102 43.7827 5.89641 44.4492 6.53576C45.1157 7.17511 45.5758 7.9992 45.7703 8.90209C45.9648 9.80497 45.8848 10.7454 45.5406 11.6024C45.1964 12.4595 44.6037 13.194 43.8388 13.7116C43.0738 14.2292 42.1716 14.5062 41.248 14.5069C40.0501 14.5279 38.8921 14.0757 38.0254 13.2485C37.1586 12.4212 36.6529 11.2856 36.6181 10.088V10.0657Z" fill="#FB2301"/>
<path d="M46.2105 20.3465C44.7775 21.0917 43.1885 21.4872 41.5733 21.5007C39.9581 21.5142 38.3627 21.1454 36.9174 20.4243L33.4421 18.6922L32.5761 18.9032C30.1229 19.4947 27.9405 20.8957 26.3813 22.88C24.8221 24.8642 23.977 27.316 23.9824 29.8396V35.4687H58.9123L59.0011 32.4932C59.0841 29.6965 58.3487 26.9365 56.8853 24.5519C55.4218 22.1674 53.2939 20.262 50.7628 19.0697L49.6525 18.5479L46.2105 20.3465ZM28.8899 30.5723V29.8396C28.8843 28.5584 29.2676 27.3056 29.9892 26.247C30.7108 25.1883 31.7368 24.3736 32.9314 23.9106L34.7301 24.8099C36.8697 25.8779 39.2318 26.4236 41.623 26.4024C44.0142 26.3812 46.3663 25.7936 48.4866 24.6878L49.6969 24.0549C50.8318 24.7773 51.8012 25.7313 52.5417 26.8545C53.2822 27.9776 53.777 29.2446 53.9937 30.5723H28.8899Z" fill="#FB2301"/>
<path d="M7.73896 44.7182C7.70369 46.6095 8.23226 48.4684 9.25735 50.0582C10.2824 51.648 11.7576 52.8966 13.4949 53.645C15.2322 54.3933 17.153 54.6075 19.0125 54.2602C20.872 53.913 22.5859 53.02 23.936 51.695C25.2861 50.3701 26.2113 48.6732 26.5935 46.8206C26.9757 44.968 26.7977 43.0435 26.0822 41.2924C25.3666 39.5414 24.146 38.0429 22.5758 36.9881C21.0056 35.9333 19.1569 35.3698 17.2652 35.3695C14.7631 35.3487 12.355 36.3214 10.5691 38.074C8.78313 39.8266 7.76534 42.2161 7.73896 44.7182ZM21.8841 44.7182C21.9218 45.6415 21.6823 46.5549 21.1965 47.341C20.7107 48.127 20.0008 48.7497 19.1581 49.129C18.3155 49.5082 17.3786 49.6266 16.4681 49.4689C15.5576 49.3113 14.7151 48.8848 14.049 48.2443C13.3829 47.6038 12.9236 46.7787 12.7304 45.8751C12.5372 44.9714 12.6188 44.0306 12.9647 43.1738C13.3106 42.3169 13.9051 41.5831 14.6715 41.0669C15.4379 40.5506 16.3412 40.2755 17.2652 40.277C18.4659 40.2561 19.626 40.7117 20.4916 41.544C21.3572 42.3763 21.8579 43.5176 21.8841 44.7182Z" fill="#DDAC00"/>
<path d="M35.0188 67.1566C35.1039 64.3581 34.3695 61.5957 32.9059 59.209C31.4423 56.8222 29.3132 54.9151 26.7803 53.722L25.67 53.2002L22.2281 54.9434C20.7952 55.6877 19.2069 56.0837 17.5922 56.0991C15.9775 56.1145 14.3819 55.749 12.935 55.0322L9.45974 53.289L8.58257 53.5C6.13328 54.0973 3.95571 55.5001 2.3993 57.4834C0.842885 59.4667 -0.00208884 61.9153 3.87787e-06 64.4364V70.0767H34.9299L35.0188 67.1566ZM4.89645 65.2358V64.4919C4.89318 63.2098 5.27869 61.9568 6.0022 60.8983C6.72571 59.8398 7.75318 59.0255 8.94898 58.5629L10.7477 59.4623C12.8853 60.5302 15.2457 61.0759 17.6351 61.0546C20.0245 61.0334 22.3748 60.4458 24.4931 59.3401L25.7145 58.7073C26.8507 59.4308 27.8209 60.3866 28.5615 61.5118C29.302 62.6369 29.7961 63.9061 30.0113 65.2358H4.89645Z" fill="#DDAC00"/>
<path d="M54.6931 44.7182C54.6578 46.6099 55.1866 48.4694 56.2122 50.0594C57.2378 51.6494 58.7137 52.8981 60.4516 53.6461C62.1896 54.3941 64.1109 54.6076 65.9707 54.2595C67.8305 53.9113 69.5445 53.0172 70.8941 51.6911C72.2438 50.3651 73.168 48.6672 73.549 46.8138C73.9299 44.9604 73.7504 43.0356 73.0331 41.2848C72.3159 39.5339 71.0935 38.0362 69.5219 36.9827C67.9502 35.9292 66.1004 35.3676 64.2083 35.3695C61.7072 35.3488 59.3002 36.3218 57.516 38.0747C55.7319 39.8276 54.7165 42.2171 54.6931 44.7182V44.7182ZM59.5894 44.7182C59.5518 43.7949 59.7913 42.8814 60.2771 42.0953C60.7629 41.3093 61.4728 40.6866 62.3154 40.3073C63.1581 39.9281 64.0949 39.8097 65.0054 39.9674C65.916 40.125 66.7585 40.5515 67.4246 41.192C68.0907 41.8325 68.5499 42.6576 68.7431 43.5612C68.9364 44.4649 68.8548 45.4057 68.5089 46.2625C68.163 47.1194 67.5686 47.8532 66.8022 48.3695C66.0357 48.8857 65.1324 49.1608 64.2083 49.1594C63.0115 49.1743 61.8571 48.7161 60.9963 47.8844C60.1356 47.0527 59.6379 45.9148 59.6117 44.7182H59.5894Z" fill="#31A8FF"/>
<path d="M73.7569 53.7006L72.6466 53.1787L69.2047 54.9441C67.7725 55.691 66.1839 56.0884 64.5688 56.1038C62.9536 56.1193 61.3577 55.7523 59.9115 55.0329L56.4363 53.2897L55.5592 53.5007C53.1099 54.098 50.9323 55.5009 49.3759 57.4841C47.8194 59.4674 46.9745 61.916 46.9766 64.4371V70.0774H81.9065L81.9953 67.1018C82.0655 64.3106 81.3245 61.5589 79.8622 59.1802C78.4 56.8016 76.2792 54.8981 73.7569 53.7006V53.7006ZM51.873 65.2143V64.4704C51.8682 63.1879 52.2532 61.9342 52.9769 60.8754C53.7006 59.8166 54.7289 59.0027 55.9255 58.5414L57.7242 59.4408C59.8618 60.5086 62.2222 61.0543 64.6117 61.0331C67.0011 61.0119 69.3514 60.4243 71.4697 59.3186L72.6911 58.6858C73.8258 59.4109 74.795 60.3671 75.5354 61.492C76.2757 62.6169 76.7707 63.8853 76.9879 65.2143H51.873Z" fill="#31A8FF"/>
<path d="M40.7142 86.9869C35.3159 86.9983 29.969 85.9384 24.9832 83.8687C19.9974 81.7989 15.4719 78.7604 11.6689 74.9291L11.0582 74.3073L10.5586 73.7744L11.2137 73.6855H20.4291L20.5069 73.7522C26.3818 78.0111 33.4524 80.3044 40.7087 80.3044C47.965 80.3044 55.0356 78.0111 60.9105 73.7522L60.9993 73.6855H70.992L70.3591 74.3517L69.804 74.9291C65.9956 78.7657 61.463 81.8073 56.4692 83.8772C51.4754 85.9472 46.12 87.0042 40.7142 86.9869V86.9869Z" fill="white"/>
<path d="M40.7144 80.6473C33.3925 80.6512 26.2571 78.3388 20.3294 74.041H11.2139L11.8911 74.7405C19.5366 82.383 29.9042 86.6763 40.7144 86.6763C51.5246 86.6763 61.8922 82.383 69.5377 74.7405L70.2038 74.041H61.0994C55.171 78.3374 48.036 80.6497 40.7144 80.6473Z" fill="#9C66F0"/>
<path d="M74.479 39.3999V39.1445C73.14 32.5034 69.8592 26.4094 65.0526 21.6352C62.2589 18.8409 59.0066 16.5464 55.4374 14.8513L55.2598 14.7736V7.55664L55.6928 7.72318C62.2878 10.3006 68.1046 14.5388 72.5789 20.0267C77.0533 25.5145 80.0332 32.0657 81.2296 39.0446V39.411L74.479 39.3999Z" fill="white"/>
<path d="M69.5379 17.0938C65.5657 13.1127 60.8092 10.001 55.5703 7.95605V14.5179C59.1728 16.2252 62.4552 18.5386 65.2744 21.3573C70.115 26.1777 73.4084 32.3318 74.734 39.0333H80.874C79.4769 30.7165 75.513 23.0451 69.5379 17.0938Z" fill="#9C66F0"/>
<path d="M0.177734 39.3997L0.244349 39.0334C1.4647 31.8922 4.55179 25.2008 9.19258 19.6377C13.8334 14.0746 19.8628 9.83769 26.6694 7.35663L27.0913 7.20117V14.3404L26.9025 14.4181C21.8403 16.6291 17.3846 20.0262 13.9119 24.3221C10.4392 28.6181 8.05148 33.6868 6.95051 39.1V39.3553L0.177734 39.3997Z" fill="white"/>
<path d="M11.8908 17.0942C5.90771 23.0397 1.94248 30.7138 0.554688 39.0337H6.68354C7.78794 33.5688 10.1901 28.4494 13.6877 24.1075C17.1852 19.7655 21.6755 16.3282 26.7799 14.0853V7.6123C21.1759 9.63126 16.0904 12.8699 11.8908 17.0942V17.0942Z" fill="#9C66F0"/>
</svg>
