<svg width="78" height="97" viewBox="0 0 78 97" fill="none" xmlns="http://www.w3.org/2000/svg">
<path d="M40.9513 22.7799C43.8015 20.8588 45.9738 19.2892 48.3218 17.8955C48.6646 17.7691 49.0296 17.7139 49.3945 17.7333C49.7593 17.7527 50.1164 17.8464 50.4438 18.0085C53.495 19.2641 56.4457 20.8588 59.5471 22.0014C61.0457 22.5383 62.6904 22.4989 64.1615 21.8909C65.6327 21.283 66.8254 20.1498 67.5078 18.7117C68.2717 17.2731 68.4954 15.6087 68.1385 14.0195C67.7815 12.4303 66.8674 11.0214 65.5616 10.0478C64.6021 9.2475 63.4331 8.73928 62.1934 8.58348C60.9538 8.42768 59.6954 8.63086 58.5677 9.16888C54.3237 11.2281 50.155 13.4882 46.1244 15.9242C39.4947 19.9296 33.091 24.3243 26.386 28.2168C22.4894 30.6886 17.7986 31.5864 13.2647 30.728C11.2287 30.2864 9.3011 29.4439 7.59414 28.2496C5.88718 27.0553 4.43505 25.5332 3.32242 23.7719C2.2098 22.0106 1.45894 20.0455 1.11362 17.991C0.768295 15.9366 0.835408 13.8339 1.31107 11.8057C1.78839 9.82621 2.654 7.9612 3.85768 6.31884C5.06136 4.67647 6.57916 3.28945 8.32304 2.23822C10.0669 1.18698 12.0022 0.492466 14.0165 0.194948C16.0309 -0.10257 18.0843 0.00283343 20.0576 0.505044C25.8837 2.08714 31.1574 5.02531 36.6319 8.22716C33.9825 10.0478 31.6094 11.7429 29.0981 13.325C28.7466 13.551 27.9681 13.325 27.4784 13.099C24.6658 11.8434 21.9285 10.4496 19.0657 9.33211C17.6866 8.68028 16.1228 8.53186 14.6458 8.91259C13.1687 9.29333 11.8716 10.1792 10.9794 11.4165C10.1276 12.558 9.64668 13.9336 9.60177 15.3573C9.55686 16.781 9.95007 18.1841 10.7283 19.3771C11.546 20.6694 12.7845 21.64 14.2349 22.1249C15.6852 22.6099 17.2584 22.5796 18.689 22.0391C21.7579 20.9118 24.7031 19.4729 27.4784 17.7448C33.1538 14.1663 38.6032 10.2111 44.241 6.59484C48.5604 3.76968 53.1057 1.25842 58.2915 0.304144C64.5696 -0.788253 69.8182 1.04496 73.698 6.08003C75.5991 8.35365 76.7646 11.1511 77.0404 14.1018C77.3162 17.0526 76.6892 20.0176 75.2425 22.6041C74.0177 25.2626 72.0217 27.4913 69.5138 29.0005C67.0058 30.5098 64.1019 31.2298 61.1794 31.067C58.786 30.9201 56.4424 30.3193 54.2735 29.2966C49.9039 27.3629 45.6724 25.1154 40.9513 22.7799Z" fill="#6E3CBC"/>
<path d="M71.2368 87.5576H4.86426V96.9999H71.2368V87.5576Z" fill="#2FCE2F"/>
<path d="M19.4297 64.9945H25.4441V34.3195L38.6408 26.748L50.4939 32.7374V64.9945H56.5963L38.0507 83.3015L19.4297 64.9945Z" fill="#2FCE2F"/>
</svg>
