<svg width="83" height="69" viewBox="0 0 83 69" fill="none" xmlns="http://www.w3.org/2000/svg">
<path d="M57.1583 68.6731H51.0563C50.0483 68.6731 49.7154 68.349 49.6524 67.341C49.4634 64.1731 49.2204 61.0411 49.1124 57.8461C49.0089 53.7526 50.5259 49.7839 53.3333 46.8031C54.5818 45.5366 55.8946 44.335 57.2663 43.2031C58.1862 42.4225 59.0494 41.5773 59.8493 40.6741C62.3873 37.4971 64.8623 34.2661 67.3373 31.0441C67.7885 30.3722 68.488 29.907 69.2821 29.7509C70.0762 29.5948 70.8998 29.7605 71.5718 30.2116C72.2437 30.6628 72.7088 31.3624 72.865 32.1565C73.0211 32.9506 72.8553 33.7742 72.4042 34.4461C70.0762 38.2741 67.7393 42.0901 65.3933 45.8941L65.1683 46.2631C65.0989 46.35 65.0491 46.4509 65.0222 46.5588C64.9953 46.6668 64.992 46.7792 65.0125 46.8886C65.033 46.9979 65.0768 47.1015 65.1409 47.1924C65.2051 47.2832 65.2881 47.3592 65.3843 47.4151C65.4779 47.4844 65.5853 47.5327 65.6993 47.5568C65.8132 47.5808 65.9311 47.58 66.0447 47.5544C66.1583 47.5287 66.265 47.4789 66.3576 47.4083C66.4502 47.3377 66.5265 47.2479 66.5812 47.1451C67.1392 46.3531 67.6972 45.5611 68.2462 44.7601C70.756 41.2025 73.0031 37.4667 74.9693 33.5821C75.6703 32.1162 76.0508 30.5177 76.0853 28.8931C76.2341 24.9585 76.7219 21.044 77.5433 17.1932C77.5973 16.9772 77.6512 16.7702 77.7142 16.5632C78.2452 14.9702 79.3252 14.2052 80.6572 14.4752C81.374 14.6291 82.0079 15.0443 82.4354 15.6399C82.863 16.2354 83.0537 16.9688 82.9703 17.6972C82.7003 20.5141 82.4033 23.3312 82.0703 26.1481C81.6563 30.1441 81.1703 34.1311 80.8283 38.1361C80.5807 40.8276 79.5018 43.3753 77.7412 45.4261C73.5472 50.4031 69.3982 55.4161 65.2403 60.4291C65.0591 60.6745 64.9586 60.9701 64.9523 61.2751C64.8533 63.3091 64.7813 65.343 64.7003 67.368C64.7003 68.331 64.3223 68.6731 63.3593 68.6821H57.1583V68.6731Z" fill="#FFC0AC"/>
<path d="M26.3783 68.592H20.2583C19.1243 68.592 18.8453 68.313 18.8003 67.179C18.7193 65.199 18.6563 63.219 18.5573 61.23C18.5308 60.8799 18.4025 60.5451 18.1883 60.267C14.0183 55.239 9.83634 50.22 5.64236 45.21C3.75639 42.8535 2.67453 39.955 2.55532 36.939C2.06932 31.422 1.43933 25.9231 0.872329 20.4151C0.773329 19.4521 0.647387 18.4891 0.593387 17.5261C0.538694 17.0165 0.622751 16.5016 0.836623 16.0358C1.0505 15.57 1.38621 15.1707 1.80836 14.8801C2.10076 14.6284 2.45091 14.4528 2.82756 14.3692C3.2042 14.2855 3.59568 14.2963 3.96717 14.4005C4.33865 14.5047 4.67856 14.6992 4.9567 14.9666C5.23484 15.234 5.4426 15.566 5.56139 15.9331C6.05557 17.3696 6.39942 18.8536 6.5874 20.3611C6.96539 23.4571 7.15433 26.5801 7.53233 29.667C7.64942 30.8881 7.95294 32.084 8.43232 33.213C10.668 37.7788 13.3097 42.1343 16.3253 46.227C16.5233 46.497 16.7123 46.776 16.9103 47.055C16.9593 47.1606 17.0307 47.2542 17.1195 47.3294C17.2083 47.4046 17.3125 47.4595 17.4247 47.4903C17.5369 47.5212 17.6545 47.5272 17.7692 47.508C17.884 47.4887 17.9932 47.4447 18.0893 47.379C18.5933 47.064 18.6023 46.614 18.2963 46.119L14.3543 39.693C13.2563 37.893 12.1404 36.093 11.0694 34.293C10.7662 33.7593 10.6322 33.1461 10.685 32.5345C10.7377 31.9229 10.9748 31.3418 11.3649 30.8678C11.755 30.3938 12.2797 30.0494 12.8697 29.88C13.4597 29.7106 14.0872 29.7242 14.6694 29.919C15.2268 30.145 15.7188 30.507 16.1003 30.972C18.6023 34.14 20.9963 37.407 23.5703 40.512C24.8018 41.8733 26.151 43.1231 27.6023 44.247C31.0421 46.9883 33.3935 50.8648 34.2353 55.182C34.3877 56.0734 34.43 56.9802 34.3613 57.882C34.2173 60.951 34.0102 64.02 33.8392 67.089C33.7582 68.421 33.4972 68.682 32.1652 68.682H26.2792L26.3783 68.592Z" fill="#FFC0AC"/>
<path d="M73.5657 28.0924C73.1157 27.8584 72.5757 27.5884 72.0717 27.2734C71.9893 27.2091 71.9224 27.1273 71.8757 27.0339C71.829 26.9405 71.8038 26.8378 71.8018 26.7334C72.2968 24.0964 72.8007 21.4684 73.3497 18.8494C73.42 18.3951 73.6094 17.9675 73.8987 17.6102C74.188 17.2529 74.5669 16.9787 74.9967 16.8154L73.5657 28.0924Z" fill="#FFC0AC"/>
<path d="M8.60352 16.8242C9.00343 16.9569 9.36085 17.1935 9.63919 17.5098C9.91754 17.8261 10.1068 18.2107 10.1875 18.6242C10.7725 21.3242 11.2855 24.0692 11.8165 26.7962C11.8196 26.8822 11.8025 26.9677 11.7666 27.0459C11.7306 27.124 11.6768 27.1927 11.6095 27.2462C11.0695 27.5612 10.5115 27.8402 10.0525 28.0922C9.5785 24.3782 9.09551 20.6222 8.60352 16.8242Z" fill="#FFC0AC"/>
<path d="M15.8929 27.1828L14.1829 26.8408C13.6339 24.4648 13.0939 22.1428 12.5449 19.7578C12.9316 19.8585 13.2853 20.0585 13.571 20.3379C13.8568 20.6173 14.0645 20.9665 14.1739 21.3508C14.7679 23.2318 15.2989 25.1398 15.8929 27.1828Z" fill="#FFC0AC"/>
<path d="M69.4075 26.8231L67.8145 27.1561C67.8775 26.8051 67.9135 26.5081 67.9945 26.2561C68.4265 24.7171 68.8945 23.1872 69.3175 21.6572C69.4208 21.2203 69.6361 20.8179 69.9423 20.4897C70.2484 20.1614 70.6348 19.9186 71.0634 19.7852C70.5144 22.0982 69.9745 24.3752 69.4075 26.8231Z" fill="#FFC0AC"/>
<path d="M51.7583 0.173828H38.5374L27.3594 11.1358V34.8058C27.3594 35.9992 27.8335 37.1438 28.6774 37.9877C29.5213 38.8316 30.6659 39.3058 31.8594 39.3058H51.7583C52.9517 39.3058 54.0963 38.8316 54.9402 37.9877C55.7841 37.1438 56.2583 35.9992 56.2583 34.8058V4.68283C56.2594 4.09112 56.144 3.50501 55.9183 2.958C55.6927 2.411 55.3614 1.91386 54.9434 1.49504C54.5254 1.07622 54.029 0.743941 53.4825 0.517233C52.9359 0.290524 52.35 0.173827 51.7583 0.173828ZM30.7163 13.5208H37.2323C38.2046 13.5208 39.1373 13.1352 39.8256 12.4485C40.514 11.7618 40.9019 10.8301 40.9043 9.85782V3.55783H51.7583C52.0631 3.56018 52.3547 3.68232 52.5703 3.89786C52.7858 4.11339 52.9079 4.40502 52.9103 4.70983V34.8328C52.9103 35.1391 52.7892 35.4331 52.5735 35.6506C52.3577 35.868 52.0646 35.9914 51.7583 35.9938H31.8774C31.5695 35.9938 31.2741 35.8714 31.0564 35.6537C30.8386 35.436 30.7163 35.1407 30.7163 34.8328V13.5208Z" fill="#590FCB"/>
<path d="M50.2277 7.31934H43.2617V10.4333H50.2277V7.31934Z" fill="#590FCB"/>
<path d="M50.2288 15.2852H33.6328V18.3991H50.2288V15.2852Z" fill="#590FCB"/>
<path d="M50.2288 23.249H33.6328V26.363H50.2288V23.249Z" fill="#590FCB"/>
<path d="M50.2288 31.2236H33.6328V34.3376H50.2288V31.2236Z" fill="#590FCB"/>
</svg>
