<svg width="60" height="90" viewBox="0 0 60 90" fill="none" xmlns="http://www.w3.org/2000/svg">
<path d="M22.7011 5.93481C31.583 2.67479 39.864 2.68446 46.016 5.96069C50.9962 8.61114 54.3359 13.2705 55.9405 19.8117C57.2623 25.1941 55.0274 29.8615 52.6235 34.1776C51.7133 35.8143 50.634 37.3353 49.4931 38.9413C47.3608 41.9415 45.157 45.0433 43.9973 49.0693C43.0305 52.4333 43.6755 56.0981 44.8215 60.111L35.8323 63.4104C34.1915 57.9448 33.5368 53.8605 34.5357 50.2477C35.25 47.667 36.9608 45.0202 38.7729 42.2176C40.3059 39.8459 41.8911 37.3942 42.9596 34.8005C45.9118 27.6522 45.7115 21.9815 42.3794 18.3993C39.0163 14.7852 33.2902 14.1054 26.6705 16.5351C25.7074 16.8886 24.7311 17.3062 23.7736 17.7794C17.7519 20.7427 14.9248 26.3854 15.9995 32.9016L4.99105 36.9422C1.48721 22.795 6.41592 12.9905 19.9948 7.02591C20.8905 6.63306 21.8017 6.26496 22.7011 5.93481ZM21.6646 3.11071C20.7015 3.46418 19.7423 3.8499 18.7838 4.27224C2.7269 11.3259 -2.4443 23.783 2.98234 40.8856L19.5585 34.8015C17.6266 28.8963 19.2805 23.3446 25.1024 20.4787C25.9505 20.0603 26.8199 19.6866 27.707 19.3592C32.6083 17.5602 37.4598 17.5292 40.1781 20.4475C43.6356 24.1615 41.3657 30.7853 40.1821 33.6504C37.9941 38.9608 33.1355 44.032 31.6387 49.4443C30.171 54.7482 31.6639 60.47 33.9144 67.3173L48.5235 61.9551C47.1413 57.5563 45.9092 53.309 46.8899 49.8999C48.4871 44.3594 52.5145 40.5594 55.2534 35.6414C57.869 30.9416 60.4354 25.4924 58.8608 19.094C54.4221 1.01181 37.9301 -2.85944 21.6646 3.11071ZM44.5913 73.4224C48.1214 72.1266 52.023 73.8815 53.2902 77.334C54.5574 80.7865 52.7166 84.6459 49.1864 85.9416C45.6577 87.2368 41.7566 85.4833 40.4894 82.0309C39.2222 78.5784 41.0625 74.7176 44.5913 73.4224ZM43.5547 70.5982C38.46 72.4682 35.8243 78.0518 37.6658 83.0688C39.5073 88.0859 45.1283 90.6357 50.223 88.7657C55.3191 86.8952 57.9553 81.313 56.1138 76.296C54.2723 71.279 48.6508 68.7277 43.5547 70.5982Z" fill="url(#paint0_linear_1039_10151)"/>
<defs>
<linearGradient id="paint0_linear_1039_10151" x1="21.2221" y1="3.27311" x2="52.3192" y2="87.9963" gradientUnits="userSpaceOnUse">
<stop stop-color="white"/>
<stop offset="1" stop-color="#8F47FF"/>
</linearGradient>
</defs>
</svg>
