 <svg
    width="119"
    height="89"
    viewBox="0 0 119 89"
    fill="none"
    xmlns="http://www.w3.org/2000/svg"

  >
    <path
      d="M117.167 85.7415L72.2817 88.8914C71.888 85.6103 71.4943 82.0668 71.1006 78.2607C70.8381 75.1109 70.5756 71.5018 70.3131 67.4333C70.1819 63.2335 70.1163 59.0338 70.1163 54.834C70.1163 40.6599 73.4629 29.2418 80.1563 20.5799C86.8496 11.7866 97.8083 5.09329 113.032 0.499815L118.151 16.4457C113.557 17.1019 109.554 18.4144 106.142 20.383C102.861 22.3516 100.105 24.6484 97.874 27.2732C95.7741 29.898 94.1336 32.7854 92.9524 35.9352C91.9024 39.085 91.3775 42.2348 91.3775 45.3846H117.167V85.7415ZM48.0676 85.7415L3.18279 88.8914C2.78907 85.6103 2.39534 82.0668 2.00162 78.2607C1.73913 75.1109 1.47665 71.5018 1.21416 67.4333C0.951679 63.2335 0.820437 59.0338 0.820437 54.834C0.820437 40.6599 4.10149 29.2418 10.6636 20.5799C17.3569 11.7866 28.3157 5.09329 43.5397 0.499815L49.0519 16.4457C44.4584 17.1019 40.3899 18.4144 36.8464 20.383C33.4341 22.3516 30.6124 24.6484 28.3813 27.2732C26.1502 29.898 24.444 32.7854 23.2628 35.9352C22.2129 39.085 21.6879 42.2348 21.6879 45.3846H48.0676V85.7415Z"
      fill="#884CE6"
    />
  </svg>
